# Wavefront OBJ file automatically generated by Tiled2Unity

# Vertices (Count = 143)
v 0 -16 0
v -16 -16 0
v -16 0 0
v 0 0 0
v -32 -16 0
v -32 0 0
v -48 -16 0
v -48 0 0
v -64 -16 0
v -64 0 0
v -80 -16 0
v -80 0 0
v -96 -16 0
v -96 0 0
v -112 -16 0
v -112 0 0
v -128 -16 0
v -128 0 0
v 0 -32 0
v -16 -32 0
v -32 -32 0
v -48 -32 0
v -64 -32 0
v -80 -32 0
v -96 -32 0
v -112 -32 0
v -128 -32 0
v 0 -48 0
v -16 -48 0
v -32 -48 0
v -48 -48 0
v -64 -48 0
v -80 -48 0
v -96 -48 0
v -112 -48 0
v -128 -48 0
v 0 -64 0
v -16 -64 0
v -32 -64 0
v -48 -64 0
v -64 -64 0
v -80 -64 0
v -96 -64 0
v -112 -64 0
v -128 -64 0
v 0 -80 0
v -16 -80 0
v -32 -80 0
v -48 -80 0
v -64 -80 0
v -80 -80 0
v -96 -80 0
v -112 -80 0
v -128 -80 0
v 0 -96 0
v -16 -96 0
v -32 -96 0
v -48 -96 0
v -64 -96 0
v -80 -96 0
v -96 -96 0
v -112 -96 0
v -128 -96 0
v 0 -112 0
v -16 -112 0
v -32 -112 0
v -48 -112 0
v -64 -112 0
v -80 -112 0
v -96 -112 0
v -112 -112 0
v -128 -112 0
v 0 -128 0
v -16 -128 0
v -32 -128 0
v -48 -128 0
v -64 -128 0
v -80 -128 0
v -96 -128 0
v -112 -128 0
v -128 -128 0
v 0 -144 0
v -16 -144 0
v -32 -144 0
v -48 -144 0
v -64 -144 0
v -80 -144 0
v -96 -144 0
v -112 -144 0
v -128 -144 0
v 0 -160 0
v -16 -160 0
v -32 -160 0
v -48 -160 0
v -64 -160 0
v -80 -160 0
v -96 -160 0
v -112 -160 0
v -128 -160 0
v 0 -176 0
v -16 -176 0
v -32 -176 0
v -48 -176 0
v -64 -176 0
v -80 -176 0
v -96 -176 0
v -112 -176 0
v -128 -176 0
v 0 -192 0
v -16 -192 0
v -32 -192 0
v -48 -192 0
v -64 -192 0
v -80 -192 0
v -96 -192 0
v -112 -192 0
v -128 -192 0
v 0 -208 0
v -16 -208 0
v -32 -208 0
v -48 -208 0
v -64 -208 0
v -80 -208 0
v -96 -208 0
v -112 -208 0
v -128 -208 0
v 0 -224 0
v -16 -224 0
v -32 -224 0
v -48 -224 0
v -64 -224 0
v -80 -224 0
v -96 -224 0
v -112 -224 0
v -128 -224 0
v 0 -240 0
v -16 -240 0
v -32 -240 0
v -48 -240 0
v -80 -240 0
v -96 -240 0
v -112 -240 0
v -128 -240 0

# Texture cooridinates (Count = 164)
vt 0.1799976 0.9200025
vt 0.1600024 0.9200025
vt 0.1600024 0.9399976
vt 0.1799976 0.9399976
vt 0.06000244 0.9600024
vt 0.07999756 0.9600024
vt 0.07999756 0.9799976
vt 0.06000244 0.9799976
vt 0.06000244 0.9200025
vt 0.07999756 0.9200025
vt 0.07999756 0.9399976
vt 0.06000244 0.9399976
vt 0.1799976 0.9600024
vt 0.1600024 0.9600024
vt 0.1600024 0.9799976
vt 0.1799976 0.9799976
vt 0.06000244 0.9400024
vt 0.07999756 0.9400024
vt 0.07999756 0.9599975
vt 0.06000244 0.9599975
vt 0.06000244 0.9000024
vt 0.07999756 0.9000024
vt 0.07999756 0.9199976
vt 0.06000244 0.9199976
vt 0.2400024 0.9600024
vt 0.2599975 0.9600024
vt 0.2599975 0.9799976
vt 0.2400024 0.9799976
vt 0.1799976 0.9000024
vt 0.1799976 0.9199976
vt 0.1600024 0.9199976
vt 0.1600024 0.9000024
vt 0.1799976 0.9599975
vt 0.1799976 0.9400024
vt 0.1600024 0.9400024
vt 0.1600024 0.9599975
vt 0.04000244 0.8200024
vt 0.05999756 0.8200024
vt 0.05999756 0.8399975
vt 0.04000244 0.8399975
vt 0.06000244 0.8200024
vt 0.07999756 0.8200024
vt 0.07999756 0.8399975
vt 0.06000244 0.8399975
vt 2.441406E-06 0.6800025
vt 0.01999756 0.6800025
vt 0.01999756 0.6999975
vt 2.441406E-06 0.6999975
vt 0.02000244 0.6800025
vt 0.03999756 0.6800025
vt 0.03999756 0.6999975
vt 0.02000244 0.6999975
vt 0.04000244 0.6800025
vt 0.05999756 0.6800025
vt 0.05999756 0.6999975
vt 0.04000244 0.6999975
vt 0.04000244 0.8000025
vt 0.05999756 0.8000025
vt 0.05999756 0.8199975
vt 0.04000244 0.8199975
vt 0.06000244 0.8000025
vt 0.07999756 0.8000025
vt 0.07999756 0.8199975
vt 0.06000244 0.8199975
vt 2.441406E-06 0.6600025
vt 0.01999756 0.6600025
vt 0.01999756 0.6799976
vt 2.441406E-06 0.6799976
vt 0.02000244 0.6600025
vt 0.03999756 0.6600025
vt 0.03999756 0.6799976
vt 0.02000244 0.6799976
vt 0.04000244 0.6600025
vt 0.05999756 0.6600025
vt 0.05999756 0.6799976
vt 0.04000244 0.6799976
vt 2.441406E-06 0.6400024
vt 0.01999756 0.6400024
vt 0.01999756 0.6599976
vt 2.441406E-06 0.6599976
vt 0.02000244 0.6400024
vt 0.03999756 0.6400024
vt 0.03999756 0.6599976
vt 0.02000244 0.6599976
vt 0.04000244 0.6400024
vt 0.05999756 0.6400024
vt 0.05999756 0.6599976
vt 0.04000244 0.6599976
vt 0.08000244 0.8200024
vt 0.09999756 0.8200024
vt 0.09999756 0.8399975
vt 0.08000244 0.8399975
vt 0.1000024 0.8200024
vt 0.1199976 0.8200024
vt 0.1199976 0.8399975
vt 0.1000024 0.8399975
vt 0.08000244 0.8000025
vt 0.09999756 0.8000025
vt 0.09999756 0.8199975
vt 0.08000244 0.8199975
vt 0.1000024 0.8000025
vt 0.1199976 0.8000025
vt 0.1199976 0.8199975
vt 0.1000024 0.8199975
vt 0.1800024 0.8200024
vt 0.1999976 0.8200024
vt 0.1999976 0.8399975
vt 0.1800024 0.8399975
vt 0.1800024 0.8000025
vt 0.1999976 0.8000025
vt 0.1999976 0.8199975
vt 0.1800024 0.8199975
vt 0.2400024 0.8200024
vt 0.2599975 0.8200024
vt 0.2599975 0.8399975
vt 0.2400024 0.8399975
vt 0.2400024 0.8000025
vt 0.2599975 0.8000025
vt 0.2599975 0.8199975
vt 0.2400024 0.8199975
vt 0.2600024 0.8200024
vt 0.2799976 0.8200024
vt 0.2799976 0.8399975
vt 0.2600024 0.8399975
vt 0.2600024 0.8000025
vt 0.2799976 0.8000025
vt 0.2799976 0.8199975
vt 0.2600024 0.8199975
vt 0.1000024 0.8400024
vt 0.1199976 0.8400024
vt 0.1199976 0.8599976
vt 0.1000024 0.8599976
vt 0.1200024 0.8200024
vt 0.1399976 0.8200024
vt 0.1399976 0.8399975
vt 0.1200024 0.8399975
vt 0.1200024 0.8000025
vt 0.1399976 0.8000025
vt 0.1399976 0.8199975
vt 0.1200024 0.8199975
vt 0.06000244 0.8400024
vt 0.07999756 0.8400024
vt 0.07999756 0.8599976
vt 0.06000244 0.8599976
vt 0.2000024 0.8200024
vt 0.2199976 0.8200024
vt 0.2199976 0.8399975
vt 0.2000024 0.8399975
vt 0.2200024 0.8200024
vt 0.2399976 0.8200024
vt 0.2399976 0.8399975
vt 0.2200024 0.8399975
vt 0.2000024 0.8000025
vt 0.2199976 0.8000025
vt 0.2199976 0.8199975
vt 0.2000024 0.8199975
vt 0.2200024 0.8000025
vt 0.2399976 0.8000025
vt 0.2399976 0.8199975
vt 0.2200024 0.8199975
vt 2.441406E-06 0.9800025
vt 0.01999756 0.9800025
vt 0.01999756 0.9999976
vt 2.441406E-06 0.9999976

# Normal
vn 0 0 -1

# Groups (Count = 4)

g mesh_0001
f 1/1/1 2/2/1 3/3/1 4/4/1
f 2/5/1 5/6/1 6/7/1 3/8/1
f 5/9/1 7/10/1 8/11/1 6/12/1
f 7/5/1 9/6/1 10/7/1 8/8/1
f 9/5/1 11/6/1 12/7/1 10/8/1
f 11/5/1 13/6/1 14/7/1 12/8/1
f 13/5/1 15/6/1 16/7/1 14/8/1
f 15/2/1 17/1/1 18/4/1 16/3/1
f 19/13/1 20/14/1 2/15/1 1/16/1
f 20/17/1 21/18/1 5/19/1 2/20/1
f 21/17/1 22/18/1 7/19/1 5/20/1
f 22/21/1 23/22/1 9/23/1 7/24/1
f 23/17/1 24/18/1 11/19/1 9/20/1
f 24/17/1 25/18/1 13/19/1 11/20/1
f 25/17/1 26/18/1 15/19/1 13/20/1
f 26/14/1 27/13/1 17/16/1 15/15/1
f 28/13/1 29/14/1 20/15/1 19/16/1
f 29/25/1 30/26/1 21/27/1 20/28/1
f 30/25/1 31/26/1 22/27/1 21/28/1
f 31/25/1 32/26/1 23/27/1 22/28/1
f 32/25/1 33/26/1 24/27/1 23/28/1
f 33/25/1 34/26/1 25/27/1 24/28/1
f 34/25/1 35/26/1 26/27/1 25/28/1
f 35/14/1 36/13/1 27/16/1 26/15/1
f 37/13/1 38/14/1 29/15/1 28/16/1
f 38/25/1 39/26/1 30/27/1 29/28/1
f 39/25/1 40/26/1 31/27/1 30/28/1
f 40/25/1 41/26/1 32/27/1 31/28/1
f 41/25/1 42/26/1 33/27/1 32/28/1
f 42/25/1 43/26/1 34/27/1 33/28/1
f 43/25/1 44/26/1 35/27/1 34/28/1
f 44/14/1 45/13/1 36/16/1 35/15/1
f 46/13/1 47/14/1 38/15/1 37/16/1
f 47/25/1 48/26/1 39/27/1 38/28/1
f 48/25/1 49/26/1 40/27/1 39/28/1
f 49/25/1 50/26/1 41/27/1 40/28/1
f 50/25/1 51/26/1 42/27/1 41/28/1
f 51/25/1 52/26/1 43/27/1 42/28/1
f 52/25/1 53/26/1 44/27/1 43/28/1
f 53/14/1 54/13/1 45/16/1 44/15/1
f 55/13/1 56/14/1 47/15/1 46/16/1
f 56/25/1 57/26/1 48/27/1 47/28/1
f 57/25/1 58/26/1 49/27/1 48/28/1
f 58/25/1 59/26/1 50/27/1 49/28/1
f 59/25/1 60/26/1 51/27/1 50/28/1
f 60/25/1 61/26/1 52/27/1 51/28/1
f 61/25/1 62/26/1 53/27/1 52/28/1
f 62/14/1 63/13/1 54/16/1 53/15/1
f 64/13/1 65/14/1 56/15/1 55/16/1
f 65/25/1 66/26/1 57/27/1 56/28/1
f 66/25/1 67/26/1 58/27/1 57/28/1
f 67/25/1 68/26/1 59/27/1 58/28/1
f 68/25/1 69/26/1 60/27/1 59/28/1
f 69/25/1 70/26/1 61/27/1 60/28/1
f 70/25/1 71/26/1 62/27/1 61/28/1
f 71/14/1 72/13/1 63/16/1 62/15/1
f 73/13/1 74/14/1 65/15/1 64/16/1
f 74/25/1 75/26/1 66/27/1 65/28/1
f 75/25/1 76/26/1 67/27/1 66/28/1
f 76/25/1 77/26/1 68/27/1 67/28/1
f 77/25/1 78/26/1 69/27/1 68/28/1
f 78/25/1 79/26/1 70/27/1 69/28/1
f 79/25/1 80/26/1 71/27/1 70/28/1
f 80/14/1 81/13/1 72/16/1 71/15/1
f 82/13/1 83/14/1 74/15/1 73/16/1
f 83/25/1 84/26/1 75/27/1 74/28/1
f 84/25/1 85/26/1 76/27/1 75/28/1
f 85/25/1 86/26/1 77/27/1 76/28/1
f 86/25/1 87/26/1 78/27/1 77/28/1
f 87/25/1 88/26/1 79/27/1 78/28/1
f 88/25/1 89/26/1 80/27/1 79/28/1
f 89/14/1 90/13/1 81/16/1 80/15/1
f 91/13/1 92/14/1 83/15/1 82/16/1
f 92/25/1 93/26/1 84/27/1 83/28/1
f 93/25/1 94/26/1 85/27/1 84/28/1
f 94/25/1 95/26/1 86/27/1 85/28/1
f 95/25/1 96/26/1 87/27/1 86/28/1
f 96/25/1 97/26/1 88/27/1 87/28/1
f 97/25/1 98/26/1 89/27/1 88/28/1
f 98/14/1 99/13/1 90/16/1 89/15/1
f 100/13/1 101/14/1 92/15/1 91/16/1
f 101/25/1 102/26/1 93/27/1 92/28/1
f 102/25/1 103/26/1 94/27/1 93/28/1
f 103/25/1 104/26/1 95/27/1 94/28/1
f 104/25/1 105/26/1 96/27/1 95/28/1
f 105/25/1 106/26/1 97/27/1 96/28/1
f 106/25/1 107/26/1 98/27/1 97/28/1
f 107/14/1 108/13/1 99/16/1 98/15/1
f 109/13/1 110/14/1 101/15/1 100/16/1
f 110/25/1 111/26/1 102/27/1 101/28/1
f 111/25/1 112/26/1 103/27/1 102/28/1
f 112/25/1 113/26/1 104/27/1 103/28/1
f 113/25/1 114/26/1 105/27/1 104/28/1
f 114/25/1 115/26/1 106/27/1 105/28/1
f 115/25/1 116/26/1 107/27/1 106/28/1
f 116/14/1 117/13/1 108/16/1 107/15/1
f 118/13/1 119/14/1 110/15/1 109/16/1
f 119/25/1 120/26/1 111/27/1 110/28/1
f 120/25/1 121/26/1 112/27/1 111/28/1
f 121/25/1 122/26/1 113/27/1 112/28/1
f 122/25/1 123/26/1 114/27/1 113/28/1
f 123/25/1 124/26/1 115/27/1 114/28/1
f 124/25/1 125/26/1 116/27/1 115/28/1
f 125/14/1 126/13/1 117/16/1 116/15/1
f 127/13/1 128/14/1 119/15/1 118/16/1
f 128/25/1 129/26/1 120/27/1 119/28/1
f 129/25/1 130/26/1 121/27/1 120/28/1
f 130/25/1 131/26/1 122/27/1 121/28/1
f 131/25/1 132/26/1 123/27/1 122/28/1
f 132/25/1 133/26/1 124/27/1 123/28/1
f 133/25/1 134/26/1 125/27/1 124/28/1
f 134/14/1 135/13/1 126/16/1 125/15/1
f 136/29/1 137/30/1 128/31/1 127/32/1
f 137/13/1 138/16/1 129/15/1 128/14/1
f 138/33/1 139/34/1 130/35/1 129/36/1
f 140/34/1 141/33/1 133/36/1 132/35/1
f 141/13/1 142/16/1 134/15/1 133/14/1
f 142/32/1 143/29/1 135/30/1 134/31/1

g mesh_0002
f 20/37/1 21/38/1 5/39/1 2/40/1
f 21/41/1 22/42/1 7/43/1 5/44/1
f 24/45/1 25/46/1 13/47/1 11/48/1
f 25/49/1 26/50/1 15/51/1 13/52/1
f 26/53/1 27/54/1 17/55/1 15/56/1
f 29/57/1 30/58/1 21/59/1 20/60/1
f 30/61/1 31/62/1 22/63/1 21/64/1
f 33/65/1 34/66/1 25/67/1 24/68/1
f 34/69/1 35/70/1 26/71/1 25/72/1
f 35/73/1 36/74/1 27/75/1 26/76/1
f 42/77/1 43/78/1 34/79/1 33/80/1
f 43/81/1 44/82/1 35/83/1 34/84/1
f 44/85/1 45/86/1 36/87/1 35/88/1
f 57/89/1 58/90/1 49/91/1 48/92/1
f 58/93/1 59/94/1 50/95/1 49/96/1
f 66/97/1 67/98/1 58/99/1 57/100/1
f 67/101/1 68/102/1 59/103/1 58/104/1
f 119/105/1 120/106/1 111/107/1 110/108/1
f 124/105/1 125/106/1 116/107/1 115/108/1
f 128/109/1 129/110/1 120/111/1 119/112/1
f 133/109/1 134/110/1 125/111/1 124/112/1

g mesh_0003
f 23/113/1 24/114/1 11/115/1 9/116/1
f 32/117/1 33/118/1 24/119/1 23/120/1
f 34/121/1 35/122/1 26/123/1 25/124/1
f 43/125/1 44/126/1 35/127/1 34/128/1
f 47/129/1 48/130/1 39/131/1 38/132/1
f 66/133/1 67/134/1 58/135/1 57/136/1
f 67/134/1 68/133/1 59/136/1 58/135/1
f 75/137/1 76/138/1 67/139/1 66/140/1
f 76/138/1 77/137/1 68/140/1 67/139/1
f 88/141/1 89/142/1 80/143/1 79/144/1
f 104/145/1 105/146/1 96/147/1 95/148/1
f 105/149/1 106/150/1 97/151/1 96/152/1
f 113/153/1 114/154/1 105/155/1 104/156/1
f 114/157/1 115/158/1 106/159/1 105/160/1

g mesh_0004
f 19/161/1 20/162/1 2/163/1 1/164/1
f 20/161/1 21/162/1 5/163/1 2/164/1
f 21/161/1 22/162/1 7/163/1 5/164/1
f 22/161/1 23/162/1 9/163/1 7/164/1
f 23/161/1 24/162/1 11/163/1 9/164/1
f 24/161/1 25/162/1 13/163/1 11/164/1
f 25/161/1 26/162/1 15/163/1 13/164/1
f 26/161/1 27/162/1 17/163/1 15/164/1
f 28/161/1 29/162/1 20/163/1 19/164/1
f 33/161/1 34/162/1 25/163/1 24/164/1
f 35/161/1 36/162/1 27/163/1 26/164/1
f 37/161/1 38/162/1 29/163/1 28/164/1
f 42/161/1 43/162/1 34/163/1 33/164/1
f 43/161/1 44/162/1 35/163/1 34/164/1
f 44/161/1 45/162/1 36/163/1 35/164/1
f 46/161/1 47/162/1 38/163/1 37/164/1
f 53/161/1 54/162/1 45/163/1 44/164/1
f 55/161/1 56/162/1 47/163/1 46/164/1
f 62/161/1 63/162/1 54/163/1 53/164/1
f 64/161/1 65/162/1 56/163/1 55/164/1
f 66/161/1 67/162/1 58/163/1 57/164/1
f 67/161/1 68/162/1 59/163/1 58/164/1
f 71/161/1 72/162/1 63/163/1 62/164/1
f 73/161/1 74/162/1 65/163/1 64/164/1
f 80/161/1 81/162/1 72/163/1 71/164/1
f 82/161/1 83/162/1 74/163/1 73/164/1
f 89/161/1 90/162/1 81/163/1 80/164/1
f 91/161/1 92/162/1 83/163/1 82/164/1
f 98/161/1 99/162/1 90/163/1 89/164/1
f 100/161/1 101/162/1 92/163/1 91/164/1
f 107/161/1 108/162/1 99/163/1 98/164/1
f 109/161/1 110/162/1 101/163/1 100/164/1
f 116/161/1 117/162/1 108/163/1 107/164/1
f 118/161/1 119/162/1 110/163/1 109/164/1
f 119/161/1 120/162/1 111/163/1 110/164/1
f 124/161/1 125/162/1 116/163/1 115/164/1
f 125/161/1 126/162/1 117/163/1 116/164/1
f 127/161/1 128/162/1 119/163/1 118/164/1
f 128/161/1 129/162/1 120/163/1 119/164/1
f 133/161/1 134/162/1 125/163/1 124/164/1
f 134/161/1 135/162/1 126/163/1 125/164/1
f 136/161/1 137/162/1 128/163/1 127/164/1
f 137/161/1 138/162/1 129/163/1 128/164/1
f 138/161/1 139/162/1 130/163/1 129/164/1
f 140/161/1 141/162/1 133/163/1 132/164/1
f 141/161/1 142/162/1 134/163/1 133/164/1
f 142/161/1 143/162/1 135/163/1 134/164/1

