# Wavefront OBJ file automatically generated by Tiled2Unity

# Vertices (Count = 170)
v 0 -16 0
v -16 -16 0
v -16 0 0
v 0 0 0
v -32 -16 0
v -32 0 0
v -48 -16 0
v -48 0 0
v -64 -16 0
v -64 0 0
v -80 -16 0
v -80 0 0
v -96 -16 0
v -96 0 0
v -112 -16 0
v -112 0 0
v -128 -16 0
v -128 0 0
v -144 -16 0
v -144 0 0
v 0 -32 0
v -16 -32 0
v -32 -32 0
v -48 -32 0
v -64 -32 0
v -80 -32 0
v -96 -32 0
v -112 -32 0
v -128 -32 0
v -144 -32 0
v 0 -48 0
v -16 -48 0
v -32 -48 0
v -48 -48 0
v -64 -48 0
v -80 -48 0
v -96 -48 0
v -112 -48 0
v -128 -48 0
v -144 -48 0
v 0 -64 0
v -16 -64 0
v -32 -64 0
v -48 -64 0
v -64 -64 0
v -80 -64 0
v -96 -64 0
v -112 -64 0
v -128 -64 0
v -144 -64 0
v 0 -80 0
v -16 -80 0
v -32 -80 0
v -48 -80 0
v -64 -80 0
v -80 -80 0
v -96 -80 0
v -112 -80 0
v -128 -80 0
v -144 -80 0
v 0 -96 0
v -16 -96 0
v -32 -96 0
v -48 -96 0
v -64 -96 0
v -80 -96 0
v -96 -96 0
v -112 -96 0
v -128 -96 0
v -144 -96 0
v 0 -112 0
v -16 -112 0
v -32 -112 0
v -48 -112 0
v -64 -112 0
v -80 -112 0
v -96 -112 0
v -112 -112 0
v -128 -112 0
v -144 -112 0
v 0 -128 0
v -16 -128 0
v -32 -128 0
v -48 -128 0
v -64 -128 0
v -80 -128 0
v -96 -128 0
v -112 -128 0
v -128 -128 0
v -144 -128 0
v 0 -144 0
v -16 -144 0
v -32 -144 0
v -48 -144 0
v -64 -144 0
v -80 -144 0
v -96 -144 0
v -112 -144 0
v -128 -144 0
v -144 -144 0
v 0 -160 0
v -16 -160 0
v -32 -160 0
v -48 -160 0
v -64 -160 0
v -80 -160 0
v -96 -160 0
v -112 -160 0
v -128 -160 0
v -144 -160 0
v 0 -176 0
v -16 -176 0
v -32 -176 0
v -48 -176 0
v -64 -176 0
v -80 -176 0
v -96 -176 0
v -112 -176 0
v -128 -176 0
v -144 -176 0
v 0 -192 0
v -16 -192 0
v -32 -192 0
v -48 -192 0
v -64 -192 0
v -80 -192 0
v -96 -192 0
v -112 -192 0
v -128 -192 0
v -144 -192 0
v 0 -208 0
v -16 -208 0
v -32 -208 0
v -48 -208 0
v -64 -208 0
v -80 -208 0
v -96 -208 0
v -112 -208 0
v -128 -208 0
v -144 -208 0
v 0 -224 0
v -16 -224 0
v -32 -224 0
v -48 -224 0
v -64 -224 0
v -80 -224 0
v -96 -224 0
v -112 -224 0
v -128 -224 0
v -144 -224 0
v 0 -240 0
v -16 -240 0
v -32 -240 0
v -48 -240 0
v -64 -240 0
v -80 -240 0
v -96 -240 0
v -112 -240 0
v -128 -240 0
v -144 -240 0
v 0 -256 0
v -16 -256 0
v -32 -256 0
v -48 -256 0
v -64 -256 0
v -80 -256 0
v -96 -256 0
v -112 -256 0
v -128 -256 0
v -144 -256 0

# Texture cooridinates (Count = 248)
vt 0.3400024 0.8000025
vt 0.3599976 0.8000025
vt 0.3599976 0.8199975
vt 0.3400024 0.8199975
vt 0.3600024 0.8000025
vt 0.3799976 0.8000025
vt 0.3799976 0.8199975
vt 0.3600024 0.8199975
vt 0.2400024 0.8800024
vt 0.2599975 0.8800024
vt 0.2599975 0.8999976
vt 0.2400024 0.8999976
vt 0.3400024 0.7800025
vt 0.3599976 0.7800025
vt 0.3599976 0.7999976
vt 0.3400024 0.7999976
vt 0.3600024 0.7800025
vt 0.3799976 0.7800025
vt 0.3799976 0.7999976
vt 0.3600024 0.7999976
vt 0.3400024 0.7600024
vt 0.3599976 0.7600024
vt 0.3599976 0.7799976
vt 0.3400024 0.7799976
vt 0.3600024 0.7600024
vt 0.3799976 0.7600024
vt 0.3799976 0.7799976
vt 0.3600024 0.7799976
vt 0.2600024 0.8800024
vt 0.2799976 0.8800024
vt 0.2799976 0.8999976
vt 0.2600024 0.8999976
vt 0.2800024 0.8800024
vt 0.2999976 0.8800024
vt 0.2999976 0.8999976
vt 0.2800024 0.8999976
vt 0.7000024 0.9200025
vt 0.7199976 0.9200025
vt 0.7199976 0.9399976
vt 0.7000024 0.9399976
vt 0.7200024 0.9200025
vt 0.7399976 0.9200025
vt 0.7399976 0.9399976
vt 0.7200024 0.9399976
vt 0.7400025 0.9200025
vt 0.7599975 0.9200025
vt 0.7599975 0.9399976
vt 0.7400025 0.9399976
vt 0.7600024 0.9200025
vt 0.7799976 0.9200025
vt 0.7799976 0.9399976
vt 0.7600024 0.9399976
vt 0.7800024 0.9200025
vt 0.7999976 0.9200025
vt 0.7999976 0.9399976
vt 0.7800024 0.9399976
vt 0.8000025 0.9200025
vt 0.8199975 0.9200025
vt 0.8199975 0.9399976
vt 0.8000025 0.9399976
vt 0.3400024 0.8200024
vt 0.3599976 0.8200024
vt 0.3599976 0.8399975
vt 0.3400024 0.8399975
vt 0.3600024 0.8200024
vt 0.3799976 0.8200024
vt 0.3799976 0.8399975
vt 0.3600024 0.8399975
vt 0.7000024 0.9000024
vt 0.7199976 0.9000024
vt 0.7199976 0.9199976
vt 0.7000024 0.9199976
vt 0.7200024 0.9000024
vt 0.7399976 0.9000024
vt 0.7399976 0.9199976
vt 0.7200024 0.9199976
vt 0.7400025 0.9000024
vt 0.7599975 0.9000024
vt 0.7599975 0.9199976
vt 0.7400025 0.9199976
vt 0.7600024 0.9000024
vt 0.7799976 0.9000024
vt 0.7799976 0.9199976
vt 0.7600024 0.9199976
vt 0.7800024 0.9000024
vt 0.7999976 0.9000024
vt 0.7999976 0.9199976
vt 0.7800024 0.9199976
vt 0.8000025 0.9000024
vt 0.8199975 0.9000024
vt 0.8199975 0.9199976
vt 0.8000025 0.9199976
vt 0.7000024 0.8800024
vt 0.7199976 0.8800024
vt 0.7199976 0.8999976
vt 0.7000024 0.8999976
vt 0.7200024 0.8800024
vt 0.7399976 0.8800024
vt 0.7399976 0.8999976
vt 0.7200024 0.8999976
vt 0.7400025 0.8800024
vt 0.7599975 0.8800024
vt 0.7599975 0.8999976
vt 0.7400025 0.8999976
vt 0.7600024 0.8800024
vt 0.7799976 0.8800024
vt 0.7799976 0.8999976
vt 0.7600024 0.8999976
vt 0.7800024 0.8800024
vt 0.7999976 0.8800024
vt 0.7999976 0.8999976
vt 0.7800024 0.8999976
vt 0.8000025 0.8800024
vt 0.8199975 0.8800024
vt 0.8199975 0.8999976
vt 0.8000025 0.8999976
vt 0.7000024 0.8600025
vt 0.7199976 0.8600025
vt 0.7199976 0.8799976
vt 0.7000024 0.8799976
vt 0.7200024 0.8600025
vt 0.7399976 0.8600025
vt 0.7399976 0.8799976
vt 0.7200024 0.8799976
vt 0.7400025 0.8600025
vt 0.7599975 0.8600025
vt 0.7599975 0.8799976
vt 0.7400025 0.8799976
vt 0.7600024 0.8600025
vt 0.7799976 0.8600025
vt 0.7799976 0.8799976
vt 0.7600024 0.8799976
vt 0.7800024 0.8600025
vt 0.7999976 0.8600025
vt 0.7999976 0.8799976
vt 0.7800024 0.8799976
vt 0.8000025 0.8600025
vt 0.8199975 0.8600025
vt 0.8199975 0.8799976
vt 0.8000025 0.8799976
vt 0.4400024 0.9800025
vt 0.4599976 0.9800025
vt 0.4599976 0.9999976
vt 0.4400024 0.9999976
vt 0.4600025 0.9800025
vt 0.4799975 0.9800025
vt 0.4799975 0.9999976
vt 0.4600025 0.9999976
vt 0.4800024 0.9800025
vt 0.4999976 0.9800025
vt 0.4999976 0.9999976
vt 0.4800024 0.9999976
vt 0.5000024 0.9800025
vt 0.5199975 0.9800025
vt 0.5199975 0.9999976
vt 0.5000024 0.9999976
vt 0.5200024 0.9800025
vt 0.5399976 0.9800025
vt 0.5399976 0.9999976
vt 0.5200024 0.9999976
vt 0.4400024 0.9600024
vt 0.4599976 0.9600024
vt 0.4599976 0.9799976
vt 0.4400024 0.9799976
vt 0.4600025 0.9600024
vt 0.4799975 0.9600024
vt 0.4799975 0.9799976
vt 0.4600025 0.9799976
vt 0.4800024 0.9600024
vt 0.4999976 0.9600024
vt 0.4999976 0.9799976
vt 0.4800024 0.9799976
vt 0.5000024 0.9600024
vt 0.5199975 0.9600024
vt 0.5199975 0.9799976
vt 0.5000024 0.9799976
vt 0.5200024 0.9600024
vt 0.5399976 0.9600024
vt 0.5399976 0.9799976
vt 0.5200024 0.9799976
vt 0.4400024 0.9400024
vt 0.4599976 0.9400024
vt 0.4599976 0.9599975
vt 0.4400024 0.9599975
vt 0.4600025 0.9400024
vt 0.4799975 0.9400024
vt 0.4799975 0.9599975
vt 0.4600025 0.9599975
vt 0.4800024 0.9400024
vt 0.4999976 0.9400024
vt 0.4999976 0.9599975
vt 0.4800024 0.9599975
vt 0.5000024 0.9400024
vt 0.5199975 0.9400024
vt 0.5199975 0.9599975
vt 0.5000024 0.9599975
vt 0.5200024 0.9400024
vt 0.5399976 0.9400024
vt 0.5399976 0.9599975
vt 0.5200024 0.9599975
vt 0.4400024 0.9200025
vt 0.4599976 0.9200025
vt 0.4599976 0.9399976
vt 0.4400024 0.9399976
vt 0.4600025 0.9200025
vt 0.4799975 0.9200025
vt 0.4799975 0.9399976
vt 0.4600025 0.9399976
vt 0.4800024 0.9200025
vt 0.4999976 0.9200025
vt 0.4999976 0.9399976
vt 0.4800024 0.9399976
vt 0.5000024 0.9200025
vt 0.5199975 0.9200025
vt 0.5199975 0.9399976
vt 0.5000024 0.9399976
vt 0.5200024 0.9200025
vt 0.5399976 0.9200025
vt 0.5399976 0.9399976
vt 0.5200024 0.9399976
vt 0.3000025 0.7600024
vt 0.3199975 0.7600024
vt 0.3199975 0.7799976
vt 0.3000025 0.7799976
vt 0.3200024 0.7600024
vt 0.3399976 0.7600024
vt 0.3399976 0.7799976
vt 0.3200024 0.7799976
vt 0.4400024 0.9000024
vt 0.4599976 0.9000024
vt 0.4599976 0.9199976
vt 0.4400024 0.9199976
vt 0.4600025 0.9000024
vt 0.4799975 0.9000024
vt 0.4799975 0.9199976
vt 0.4600025 0.9199976
vt 0.4800024 0.9000024
vt 0.4999976 0.9000024
vt 0.4999976 0.9199976
vt 0.4800024 0.9199976
vt 0.5000024 0.9000024
vt 0.5199975 0.9000024
vt 0.5199975 0.9199976
vt 0.5000024 0.9199976
vt 0.5200024 0.9000024
vt 0.5399976 0.9000024
vt 0.5399976 0.9199976
vt 0.5200024 0.9199976

# Normal
vn 0 0 -1

# Groups (Count = 2)

g mesh_0001
f 1/1/1 2/2/1 3/3/1 4/4/1
f 2/5/1 5/6/1 6/7/1 3/8/1
f 5/9/1 7/10/1 8/11/1 6/12/1
f 7/1/1 9/2/1 10/3/1 8/4/1
f 9/5/1 11/6/1 12/7/1 10/8/1
f 11/9/1 13/10/1 14/11/1 12/12/1
f 13/9/1 15/10/1 16/11/1 14/12/1
f 15/9/1 17/10/1 18/11/1 16/12/1
f 17/9/1 19/10/1 20/11/1 18/12/1
f 21/13/1 22/14/1 2/15/1 1/16/1
f 22/17/1 23/18/1 5/19/1 2/20/1
f 23/9/1 24/10/1 7/11/1 5/12/1
f 24/13/1 25/14/1 9/15/1 7/16/1
f 25/17/1 26/18/1 11/19/1 9/20/1
f 26/9/1 27/10/1 13/11/1 11/12/1
f 27/9/1 28/10/1 15/11/1 13/12/1
f 28/9/1 29/10/1 17/11/1 15/12/1
f 29/9/1 30/10/1 19/11/1 17/12/1
f 31/21/1 32/22/1 22/23/1 21/24/1
f 32/25/1 33/26/1 23/27/1 22/28/1
f 33/9/1 34/10/1 24/11/1 23/12/1
f 34/21/1 35/22/1 25/23/1 24/24/1
f 35/25/1 36/26/1 26/27/1 25/28/1
f 36/9/1 37/10/1 27/11/1 26/12/1
f 37/9/1 38/10/1 28/11/1 27/12/1
f 38/29/1 39/30/1 29/31/1 28/32/1
f 39/9/1 40/10/1 30/11/1 29/12/1
f 41/9/1 42/10/1 32/11/1 31/12/1
f 42/9/1 43/10/1 33/11/1 32/12/1
f 43/9/1 44/10/1 34/11/1 33/12/1
f 44/9/1 45/10/1 35/11/1 34/12/1
f 45/9/1 46/10/1 36/11/1 35/12/1
f 46/9/1 47/10/1 37/11/1 36/12/1
f 47/29/1 48/30/1 38/31/1 37/32/1
f 48/29/1 49/30/1 39/31/1 38/32/1
f 49/9/1 50/10/1 40/11/1 39/12/1
f 51/9/1 52/10/1 42/11/1 41/12/1
f 52/9/1 53/10/1 43/11/1 42/12/1
f 53/33/1 54/34/1 44/35/1 43/36/1
f 54/33/1 55/34/1 45/35/1 44/36/1
f 55/9/1 56/10/1 46/11/1 45/12/1
f 56/29/1 57/30/1 47/31/1 46/32/1
f 57/29/1 58/30/1 48/31/1 47/32/1
f 58/9/1 59/10/1 49/11/1 48/12/1
f 59/9/1 60/10/1 50/11/1 49/12/1
f 61/9/1 62/10/1 52/11/1 51/12/1
f 62/9/1 63/10/1 53/11/1 52/12/1
f 63/33/1 64/34/1 54/35/1 53/36/1
f 64/33/1 65/34/1 55/35/1 54/36/1
f 65/29/1 66/30/1 56/31/1 55/32/1
f 66/29/1 67/30/1 57/31/1 56/32/1
f 67/29/1 68/30/1 58/31/1 57/32/1
f 68/29/1 69/30/1 59/31/1 58/32/1
f 69/9/1 70/10/1 60/11/1 59/12/1
f 71/9/1 72/10/1 62/11/1 61/12/1
f 72/9/1 73/10/1 63/11/1 62/12/1
f 73/33/1 74/34/1 64/35/1 63/36/1
f 74/33/1 75/34/1 65/35/1 64/36/1
f 75/33/1 76/34/1 66/35/1 65/36/1
f 76/33/1 77/34/1 67/35/1 66/36/1
f 77/33/1 78/34/1 68/35/1 67/36/1
f 78/33/1 79/34/1 69/35/1 68/36/1
f 79/29/1 80/30/1 70/31/1 69/32/1
f 81/9/1 82/10/1 72/11/1 71/12/1
f 82/9/1 83/10/1 73/11/1 72/12/1
f 83/33/1 84/34/1 74/35/1 73/36/1
f 84/33/1 85/34/1 75/35/1 74/36/1
f 85/33/1 86/34/1 76/35/1 75/36/1
f 86/33/1 87/34/1 77/35/1 76/36/1
f 87/33/1 88/34/1 78/35/1 77/36/1
f 88/33/1 89/34/1 79/35/1 78/36/1
f 89/9/1 90/10/1 80/11/1 79/12/1
f 91/9/1 92/10/1 82/11/1 81/12/1
f 92/9/1 93/10/1 83/11/1 82/12/1
f 93/9/1 94/10/1 84/11/1 83/12/1
f 94/9/1 95/10/1 85/11/1 84/12/1
f 95/9/1 96/10/1 86/11/1 85/12/1
f 96/9/1 97/10/1 87/11/1 86/12/1
f 97/33/1 98/34/1 88/35/1 87/36/1
f 98/33/1 99/34/1 89/35/1 88/36/1
f 99/9/1 100/10/1 90/11/1 89/12/1
f 101/9/1 102/10/1 92/11/1 91/12/1
f 102/9/1 103/10/1 93/11/1 92/12/1
f 103/9/1 104/10/1 94/11/1 93/12/1
f 104/9/1 105/10/1 95/11/1 94/12/1
f 105/9/1 106/10/1 96/11/1 95/12/1
f 106/9/1 107/10/1 97/11/1 96/12/1
f 107/33/1 108/34/1 98/35/1 97/36/1
f 108/33/1 109/34/1 99/35/1 98/36/1
f 109/9/1 110/10/1 100/11/1 99/12/1
f 111/9/1 112/10/1 102/11/1 101/12/1
f 112/9/1 113/10/1 103/11/1 102/12/1
f 113/9/1 114/10/1 104/11/1 103/12/1
f 114/9/1 115/10/1 105/11/1 104/12/1
f 115/9/1 116/10/1 106/11/1 105/12/1
f 116/9/1 117/10/1 107/11/1 106/12/1
f 117/33/1 118/34/1 108/35/1 107/36/1
f 118/33/1 119/34/1 109/35/1 108/36/1
f 119/9/1 120/10/1 110/11/1 109/12/1
f 121/9/1 122/10/1 112/11/1 111/12/1
f 122/9/1 123/10/1 113/11/1 112/12/1
f 123/9/1 124/10/1 114/11/1 113/12/1
f 124/9/1 125/10/1 115/11/1 114/12/1
f 125/9/1 126/10/1 116/11/1 115/12/1
f 126/9/1 127/10/1 117/11/1 116/12/1
f 127/33/1 128/34/1 118/35/1 117/36/1
f 128/33/1 129/34/1 119/35/1 118/36/1
f 129/9/1 130/10/1 120/11/1 119/12/1
f 131/9/1 132/10/1 122/11/1 121/12/1
f 132/9/1 133/10/1 123/11/1 122/12/1
f 133/9/1 134/10/1 124/11/1 123/12/1
f 134/9/1 135/10/1 125/11/1 124/12/1
f 135/9/1 136/10/1 126/11/1 125/12/1
f 136/9/1 137/10/1 127/11/1 126/12/1
f 137/33/1 138/34/1 128/35/1 127/36/1
f 138/33/1 139/34/1 129/35/1 128/36/1
f 139/9/1 140/10/1 130/11/1 129/12/1
f 141/9/1 142/10/1 132/11/1 131/12/1
f 142/33/1 143/34/1 133/35/1 132/36/1
f 143/33/1 144/34/1 134/35/1 133/36/1
f 144/33/1 145/34/1 135/35/1 134/36/1
f 145/9/1 146/10/1 136/11/1 135/12/1
f 146/9/1 147/10/1 137/11/1 136/12/1
f 147/33/1 148/34/1 138/35/1 137/36/1
f 148/33/1 149/34/1 139/35/1 138/36/1
f 149/9/1 150/10/1 140/11/1 139/12/1
f 151/9/1 152/10/1 142/11/1 141/12/1
f 152/33/1 153/34/1 143/35/1 142/36/1
f 153/33/1 154/34/1 144/35/1 143/36/1
f 154/33/1 155/34/1 145/35/1 144/36/1
f 155/33/1 156/34/1 146/35/1 145/36/1
f 156/33/1 157/34/1 147/35/1 146/36/1
f 157/33/1 158/34/1 148/35/1 147/36/1
f 158/33/1 159/34/1 149/35/1 148/36/1
f 159/29/1 160/30/1 150/31/1 149/32/1
f 161/29/1 162/30/1 152/31/1 151/32/1
f 162/33/1 163/34/1 153/35/1 152/36/1
f 163/33/1 164/34/1 154/35/1 153/36/1
f 164/33/1 165/34/1 155/35/1 154/36/1
f 165/33/1 166/34/1 156/35/1 155/36/1
f 166/33/1 167/34/1 157/35/1 156/36/1
f 167/33/1 168/34/1 158/35/1 157/36/1
f 168/33/1 169/34/1 159/35/1 158/36/1
f 169/9/1 170/10/1 160/11/1 159/12/1

g mesh_0002
f 1/37/1 2/38/1 3/39/1 4/40/1
f 2/41/1 5/42/1 6/43/1 3/44/1
f 5/45/1 7/46/1 8/47/1 6/48/1
f 7/49/1 9/50/1 10/51/1 8/52/1
f 9/53/1 11/54/1 12/55/1 10/56/1
f 11/57/1 13/58/1 14/59/1 12/60/1
f 15/61/1 17/62/1 18/63/1 16/64/1
f 17/65/1 19/66/1 20/67/1 18/68/1
f 21/69/1 22/70/1 2/71/1 1/72/1
f 22/73/1 23/74/1 5/75/1 2/76/1
f 23/77/1 24/78/1 7/79/1 5/80/1
f 24/81/1 25/82/1 9/83/1 7/84/1
f 25/85/1 26/86/1 11/87/1 9/88/1
f 26/89/1 27/90/1 13/91/1 11/92/1
f 28/61/1 29/62/1 17/63/1 15/64/1
f 29/65/1 30/66/1 19/67/1 17/68/1
f 31/93/1 32/94/1 22/95/1 21/96/1
f 32/97/1 33/98/1 23/99/1 22/100/1
f 33/101/1 34/102/1 24/103/1 23/104/1
f 34/105/1 35/106/1 25/107/1 24/108/1
f 35/109/1 36/110/1 26/111/1 25/112/1
f 36/113/1 37/114/1 27/115/1 26/116/1
f 38/1/1 39/2/1 29/3/1 28/4/1
f 39/5/1 40/6/1 30/7/1 29/8/1
f 41/117/1 42/118/1 32/119/1 31/120/1
f 42/121/1 43/122/1 33/123/1 32/124/1
f 43/125/1 44/126/1 34/127/1 33/128/1
f 44/129/1 45/130/1 35/131/1 34/132/1
f 45/133/1 46/134/1 36/135/1 35/136/1
f 46/137/1 47/138/1 37/139/1 36/140/1
f 48/13/1 49/14/1 39/15/1 38/16/1
f 49/17/1 50/18/1 40/19/1 39/20/1
f 58/21/1 59/22/1 49/23/1 48/24/1
f 59/25/1 60/26/1 50/27/1 49/28/1
f 91/141/1 92/142/1 82/143/1 81/144/1
f 92/145/1 93/146/1 83/147/1 82/148/1
f 93/149/1 94/150/1 84/151/1 83/152/1
f 94/153/1 95/154/1 85/155/1 84/156/1
f 95/157/1 96/158/1 86/159/1 85/160/1
f 101/161/1 102/162/1 92/163/1 91/164/1
f 102/165/1 103/166/1 93/167/1 92/168/1
f 103/169/1 104/170/1 94/171/1 93/172/1
f 104/173/1 105/174/1 95/175/1 94/176/1
f 105/177/1 106/178/1 96/179/1 95/180/1
f 111/181/1 112/182/1 102/183/1 101/184/1
f 112/185/1 113/186/1 103/187/1 102/188/1
f 113/189/1 114/190/1 104/191/1 103/192/1
f 114/193/1 115/194/1 105/195/1 104/196/1
f 115/197/1 116/198/1 106/199/1 105/200/1
f 121/201/1 122/202/1 112/203/1 111/204/1
f 122/205/1 123/206/1 113/207/1 112/208/1
f 123/209/1 124/210/1 114/211/1 113/212/1
f 124/213/1 125/214/1 115/215/1 114/216/1
f 125/217/1 126/218/1 116/219/1 115/220/1
f 128/221/1 129/222/1 119/223/1 118/224/1
f 129/225/1 130/226/1 120/227/1 119/228/1
f 131/229/1 132/230/1 122/231/1 121/232/1
f 132/233/1 133/234/1 123/235/1 122/236/1
f 133/237/1 134/238/1 124/239/1 123/240/1
f 134/241/1 135/242/1 125/243/1 124/244/1
f 135/245/1 136/246/1 126/247/1 125/248/1
f 146/221/1 147/222/1 137/223/1 136/224/1
f 147/225/1 148/226/1 138/227/1 137/228/1

